<svg xmlns="http://www.w3.org/2000/svg" width="30" height="30"><path fill="#08c" d="M14.5 21.248c-.51 0-1-.201-1.359-.562l-5.967-5.968c-.75-.751-.75-1.968 0-2.718.751-.751 1.968-.751 2.719 0l4.608 4.607 12.218-12.218c.75-.751 1.969-.751 2.719 0 .75.75.75 1.967 0 2.719l-13.58 13.578c-.36.361-.849.562-1.358.562z"/><path fill="#08c" d="M22.591 29.18h-16.822c-3.181 0-5.769-2.588-5.769-5.769v-16.822c0-3.181 2.587-5.769 5.769-5.769h16.822c1.063 0 1.925.861 1.925 1.923s-.861 1.923-1.925 1.923h-16.822c-1.06 0-1.923.862-1.923 1.923v16.822c0 1.06.863 1.923 1.923 1.923h16.822c1.062 0 1.925-.863 1.925-1.923v-7.612c0-1.061.859-1.922 1.922-1.922s1.922.861 1.922 1.922v7.612c-.003 3.181-2.589 5.769-5.769 5.769z"/></svg>